<svg data-v-423bf9ae="" xmlns="http://www.w3.org/2000/svg" viewBox="0 0 733 112" class="iconLeft"><!----><!----><!----><g data-v-423bf9ae="" id="99cffb0e-9ef3-4f32-8ff0-cf3af6175868" fill="#070707" transform="matrix(4.966887448588033,0,0,4.966887448588033,126.42911407733283,7.115439272079541)"><path d="M9.25 15.37L7.03 11.42L6.72 10.89L6.65 10.77C8.68 10.32 9.73 8.82 9.73 7.35C9.73 6.38 9.28 5.46 8.51 4.82C7.73 4.14 6.62 3.79 5.35 3.79L1.26 3.79C1.11 3.79 0.98 3.92 0.98 4.06L0.98 5.17L1.12 5.42L1.12 5.43L2.98 8.71L0.98 8.71L0.98 15.54C0.98 15.69 1.11 15.82 1.26 15.82L2.90 15.82C3.04 15.82 3.16 15.69 3.16 15.54L3.16 10.89L4.21 10.89L4.51 11.42L6.90 15.65L6.93 15.69C6.97 15.76 7.06 15.82 7.15 15.82L9.03 15.82C9.18 15.82 9.30 15.69 9.30 15.53C9.30 15.48 9.30 15.44 9.27 15.40ZM5.19 8.19L3.95 5.98L5.35 5.98C6.86 5.98 7.53 6.69 7.53 7.35C7.53 7.91 7.03 8.53 5.89 8.68C5.77 8.69 5.63 8.71 5.49 8.71ZM19.33 15.54C19.33 15.69 19.21 15.82 19.07 15.82L11.41 15.82C11.26 15.82 11.13 15.69 11.13 15.54L11.13 4.06C11.13 3.91 11.26 3.78 11.41 3.78L18.79 3.78C18.94 3.78 19.07 3.91 19.07 4.06L19.07 5.70C19.07 5.85 18.94 5.96 18.79 5.96L13.31 5.96L13.31 8.71L18.51 8.71C18.66 8.71 18.79 8.82 18.79 8.97L18.79 10.61C18.79 10.77 18.66 10.89 18.51 10.89L13.31 10.89L13.31 13.62L19.07 13.62C19.21 13.62 19.33 13.75 19.33 13.90ZM28.80 12.28C28.80 12.38 28.78 13.22 28.25 14.07C27.76 14.88 26.75 15.83 24.70 15.83C23.07 15.83 21.80 15.15 21.11 13.93C20.79 13.34 20.66 12.77 20.62 12.40C20.62 12.38 20.61 12.35 20.61 12.32C20.61 12.18 20.72 12.05 20.86 12.04L22.58 12.04C22.69 12.05 22.78 12.12 22.81 12.24L22.81 12.25C22.81 12.26 22.82 12.28 22.82 12.29C22.85 12.46 22.92 12.70 23.06 12.91C23.35 13.40 23.90 13.65 24.70 13.65C25.55 13.65 26.10 13.41 26.39 12.94C26.59 12.61 26.61 12.26 26.61 12.26C26.61 11.87 26.52 11.41 25.79 11.12C25.26 10.89 24.70 10.88 24.70 10.88C24.60 10.88 23.70 10.86 22.78 10.50C21.36 9.93 20.59 8.81 20.59 7.34C20.59 7.20 20.62 5.89 21.64 4.87C22.37 4.13 23.41 3.75 24.70 3.75C25.52 3.75 26.71 3.93 27.62 4.86C28.50 5.75 28.73 6.89 28.78 7.45L28.78 7.48C28.78 7.64 28.67 7.77 28.52 7.77L26.82 7.77C26.71 7.76 26.61 7.66 26.59 7.55L26.59 7.50C26.54 7.31 26.47 7.03 26.33 6.75C26.14 6.40 25.76 5.94 24.70 5.94C24.01 5.94 23.51 6.09 23.18 6.41C22.81 6.79 22.78 7.34 22.78 7.34C22.78 7.73 22.88 8.18 23.60 8.47C24.14 8.68 24.70 8.69 24.70 8.69C24.79 8.69 25.69 8.71 26.61 9.09C28.03 9.67 28.80 10.81 28.80 12.28ZM38.40 12.05C38.40 13.22 37.93 14.22 37.04 14.92C36.30 15.50 35.34 15.82 34.30 15.82C33.26 15.82 32.30 15.50 31.56 14.92C30.67 14.22 30.20 13.22 30.20 12.05L30.20 4.07C30.20 3.92 30.32 3.78 30.48 3.78L32.12 3.78C32.27 3.78 32.38 3.92 32.38 4.07L32.38 12.05C32.38 13.58 34.10 13.64 34.30 13.64C34.50 13.64 36.22 13.58 36.22 12.05L36.22 4.07C36.22 3.92 36.34 3.78 36.48 3.78L38.14 3.78C38.28 3.78 38.40 3.92 38.40 4.07ZM40.08 3.79L44.66 8.37L49.24 3.79L49.24 15.54C49.24 15.69 49.13 15.82 48.97 15.82L47.36 15.82C47.21 15.82 47.08 15.69 47.08 15.54L47.08 8.99L44.66 11.41L42.24 8.99L42.24 15.54C42.24 15.69 42.13 15.82 41.97 15.82L40.35 15.82C40.21 15.82 40.08 15.69 40.08 15.54ZM59.12 15.54C59.12 15.69 59.00 15.82 58.86 15.82L51.20 15.82C51.04 15.82 50.92 15.69 50.92 15.54L50.92 4.06C50.92 3.91 51.04 3.78 51.20 3.78L58.58 3.78C58.73 3.78 58.86 3.91 58.86 4.06L58.86 5.70C58.86 5.85 58.73 5.96 58.58 5.96L53.10 5.96L53.10 8.71L58.30 8.71C58.45 8.71 58.58 8.82 58.58 8.97L58.58 10.61C58.58 10.77 58.45 10.89 58.30 10.89L53.10 10.89L53.10 13.62L58.86 13.62C59.00 13.62 59.12 13.75 59.12 13.90ZM74.82 5.68C74.82 5.84 74.66 5.96 74.48 5.96L71.81 5.96L71.81 15.47C71.81 15.65 71.68 15.81 71.54 15.81L69.89 15.81C69.75 15.81 69.62 15.65 69.62 15.47L69.62 5.96L66.89 5.96C66.74 5.96 66.61 5.84 66.61 5.68L66.61 4.05C66.61 3.89 66.74 3.78 66.89 3.78L74.48 3.78C74.66 3.78 74.82 3.89 74.82 4.05ZM83.02 11.16C83.02 11.00 82.89 10.89 82.74 10.89L81.82 10.89L80.11 4.05L80.09 3.98C80.05 3.88 79.95 3.81 79.84 3.81L78.01 3.81C77.90 3.81 77.80 3.88 77.76 3.98L77.74 4.06L74.90 15.41C74.90 15.43 74.90 15.44 74.89 15.44L74.89 15.50C74.89 15.67 75.01 15.79 75.15 15.79L76.85 15.79C76.96 15.79 77.07 15.71 77.10 15.60C77.10 15.58 77.11 15.57 77.11 15.57L77.73 13.06L80.12 13.06L80.74 15.55L80.75 15.60C80.79 15.71 80.89 15.79 81.00 15.79L82.70 15.79C82.85 15.79 82.96 15.67 82.96 15.50L82.96 15.47L82.95 15.40L82.36 13.06L82.74 13.06C82.89 13.06 83.02 12.95 83.02 12.80ZM78.27 10.89L78.93 8.30L79.58 10.89ZM89.08 5.95L89.08 13.61L90.92 13.61C91.11 13.61 91.27 13.73 91.27 13.89L91.27 15.53C91.27 15.68 91.11 15.81 90.92 15.81L84.98 15.81C84.83 15.81 84.70 15.68 84.70 15.53L84.70 13.89C84.70 13.73 84.83 13.61 84.98 13.61L86.88 13.61L86.88 5.95L84.98 5.95C84.83 5.95 84.70 5.84 84.70 5.68L84.70 4.05C84.70 3.89 84.83 3.77 84.98 3.77L90.92 3.77C91.11 3.77 91.27 3.89 91.27 4.05L91.27 5.68C91.27 5.84 91.11 5.95 90.92 5.95ZM99.65 15.54C99.65 15.69 99.50 15.81 99.30 15.81L93.37 15.81C93.21 15.81 93.09 15.69 93.09 15.54L93.09 4.12C93.09 3.93 93.21 3.78 93.37 3.78L95.00 3.78C95.16 3.78 95.27 3.93 95.27 4.12L95.27 13.62L99.30 13.62C99.50 13.62 99.65 13.75 99.65 13.90ZM105.88 15.82C102.56 15.82 99.86 13.12 99.86 9.80C99.86 6.48 102.56 3.78 105.88 3.78C109.20 3.78 111.90 6.48 111.90 9.80C111.90 13.12 109.20 15.82 105.88 15.82ZM105.88 5.96C103.77 5.96 102.05 7.69 102.05 9.80C102.05 11.91 103.77 13.62 105.88 13.62C108.00 13.62 109.70 11.91 109.70 9.80C109.70 7.69 108.00 5.96 105.88 5.96ZM121.51 15.37L119.28 11.42L118.97 10.89L118.90 10.77C120.93 10.32 121.98 8.82 121.98 7.35C121.98 6.38 121.53 5.46 120.76 4.82C119.98 4.14 118.87 3.79 117.60 3.79L113.51 3.79C113.36 3.79 113.23 3.92 113.23 4.06L113.23 5.17L113.37 5.42L113.37 5.43L115.23 8.71L113.23 8.71L113.23 15.54C113.23 15.69 113.36 15.82 113.51 15.82L115.15 15.82C115.29 15.82 115.42 15.69 115.42 15.54L115.42 10.89L116.47 10.89L116.76 11.42L119.15 15.65L119.18 15.69C119.22 15.76 119.31 15.82 119.41 15.82L121.28 15.82C121.44 15.82 121.55 15.69 121.55 15.53C121.55 15.48 121.55 15.44 121.52 15.40ZM117.45 8.19L116.20 5.98L117.60 5.98C119.11 5.98 119.78 6.69 119.78 7.35C119.78 7.91 119.28 8.53 118.15 8.68C118.02 8.69 117.88 8.71 117.74 8.71Z"></path></g><!----><g data-v-423bf9ae="" id="ed2d1a19-7c1e-4754-aa87-fe2d7cf83aca" transform="matrix(1.1129666646321614,0,0,1.1129666646321614,0.35166676839192945,0.25873415379028586)" stroke="none" fill="#ADF1D2"><g clip-rule="evenodd"><path d="M47.167 0H53c14.038 1.07 24.508 6.841 32.167 14.5C92.821 22.154 98.885 32.348 100 46.334c-.569.213-1.033-.676-1.667-1.167-6.408-4.972-13.754 2.725-21.666 3.333-2.652.205-5.112.03-8.333-.5-1.339-5.115-.326-10.016 1.333-14.5 1.012-2.735 2.903-5.496 3.333-8.333.264-1.748-.251-3.516-.167-5.333.116-2.491 2.114-4.33 1.167-7-2.623-.723-2.78 2.433-3.834 3.833-.607.307-.977-.538-1.5-.833-6.65-3.757-13.758 3.236-13.166 9.666.391 4.24 3.867 7.292 9 7.333-.417 5.311-2.77 10.117-3.667 15.5-4.87.614-10.413 1.716-16 2.667-9.238 1.572-18.691 1.833-20.167 10.833 11.475-1.192 23.111-3.667 35-5-1.626 11.596-3.937 23.395-5.166 34.834 7.27-.626 8.843-7.748 10-14.833 1.15-7.044 2.539-14.919 3.667-21.501 5.876-.347 9.969-3.361 15.666-3.333.653 1.042.14 2.237.334 3.166 1.364 6.552 11.914 7.14 15.333 2.667-5.152 24.536-20.559 39.751-47.834 42.334H48.5C33.908 99.3 22.838 93.671 15 85.833 7.149 77.982 1.103 67.376 0 53v-5.833C.868 33.795 7.13 21.876 14.667 14.5 22.701 6.636 33.399 1.114 47.167 0z"></path><path d="M64.167 18.833c6.843-.47 6.554 11.387-.333 10.5-5.391-.694-6.091-10.059.333-10.5zM91.333 47.333c3.129-.699 6.433 1.298 6.667 4.167.646 7.91-12.772 6.455-10.333-1 .347-1.062 1.444-2.671 3.666-3.167z"></path></g></g><!----></svg>